# xmcd
#
# Track frame offsets: 
#        150
#        16789
#        30541
#        51210
#        66243
#        83067
#        98049
#        117952
#        137540
#        152721
#
# Disc length: 2295 seconds
#
# Revision: 0
# Processed by: cddbd v1.5.2PL0 Copyright (c) Steve Scherf et al.
# Submitted via: ExactAudioCopyFreeDBPlugin 1.0
#
DISCID=7408f50a
DTITLE=Lost Dog Street Band - Weight of a Trigger
DYEAR=2019
DGENRE=Country
TTITLE0=To Heaven from Here
TTITLE1=Given Up Faith
TTITLE2=Terrible and True
TTITLE3=Bring Back Someday
TTITLE4=Without a Doubt
TTITLE5=War Inside of Me
TTITLE6=Diane
TTITLE7=Weight of a Trigger
TTITLE8=Lazy Moonshiner
TTITLE9=Just To Say Goodbye
EXTD=
EXTT0=
EXTT1=
EXTT2=
EXTT3=
EXTT4=
EXTT5=
EXTT6=
EXTT7=
EXTT8=
EXTT9=
PLAYORDER=
